<svg id="Capa_1" data-name="Capa 1" xmlns="http://www.w3.org/2000/svg" viewBox="0 0 200 60"><title>op2</title><path d="M41.52,34.47a6.19,6.19,0,0,1-.9,3.47,7.35,7.35,0,0,1-2.31,2.23,11.29,11.29,0,0,1-3.2,1.29,28.1,28.1,0,0,1-3.49.66c-1.18.15-2.34.25-3.5.29s-2.33.07-3.5.07c-.94,0-1.94,0-3,0s-2.12-.1-3.21-.22-2.14-.28-3.17-.48a16.79,16.79,0,0,1-2.86-.84l-.64-.26a2.3,2.3,0,0,1-.59-.35,2.73,2.73,0,0,1-.57-.55,1.21,1.21,0,0,1-.22-.77,1.56,1.56,0,0,1,.46-1.11,1.46,1.46,0,0,1,1.08-.48,1.76,1.76,0,0,1,.79.22,11.77,11.77,0,0,0,2.78,1,25.73,25.73,0,0,0,3.06.53c1,.12,2.09.19,3.13.22s2,0,3,0l1.89,0c.77,0,1.59,0,2.47-.11s1.79-.15,2.72-.28a22.05,22.05,0,0,0,2.62-.53,10.5,10.5,0,0,0,2.2-.84A3.7,3.7,0,0,0,38,36.36a2.38,2.38,0,0,0,.37-.93,5.69,5.69,0,0,0,.07-1,6.07,6.07,0,0,0-.07-1,2.4,2.4,0,0,0-.37-.95,3.81,3.81,0,0,0-1.46-1.26,11.08,11.08,0,0,0-2.2-.83,22.05,22.05,0,0,0-2.62-.53c-.93-.13-1.83-.23-2.72-.29s-1.7-.09-2.47-.11l-1.89,0c-.94,0-1.93,0-3,.05s-2.08.1-3.13.22a25.71,25.71,0,0,0-3.06.52,12.25,12.25,0,0,0-2.78,1,1.9,1.9,0,0,1-.79.22,1.54,1.54,0,0,1-1.08-.44,1.46,1.46,0,0,1-.46-1.1V19.06a1.54,1.54,0,0,1,.46-1.1,1.45,1.45,0,0,1,1.08-.49H39.49a1.44,1.44,0,0,1,1.08.48A1.53,1.53,0,0,1,41,19a1.44,1.44,0,0,1-.47,1.06,1.5,1.5,0,0,1-1.08.46H13.44v7.08A23.35,23.35,0,0,1,16.12,27c.94-.16,1.89-.28,2.86-.37s1.93-.15,2.89-.18,1.87,0,2.75,0c1.17,0,2.34,0,3.5.09s2.32.16,3.5.31a28.1,28.1,0,0,1,3.49.66,11,11,0,0,1,3.2,1.3A7.21,7.21,0,0,1,40.62,31,6.2,6.2,0,0,1,41.52,34.47Z"/><path d="M77,25.62a6.28,6.28,0,0,1-.89,3.48,7,7,0,0,1-2.29,2.22,10.48,10.48,0,0,1-3.18,1.27,32.35,32.35,0,0,1-3.5.64c-1.17.15-2.34.25-3.5.31s-2.32.09-3.5.09a24.36,24.36,0,0,0-3.32.24,14,14,0,0,0-3.28.87,8.31,8.31,0,0,0-2.71,1.75,6.36,6.36,0,0,0-1.65,2.95H75a1.44,1.44,0,0,1,1.07.48A1.54,1.54,0,0,1,76.56,41,1.54,1.54,0,0,1,75,42.52H47.46a1.43,1.43,0,0,1-1.12-.46,1.65,1.65,0,0,1-.42-1.16,8.2,8.2,0,0,1,.75-3.47,11.31,11.31,0,0,1,1.94-2.93,9.69,9.69,0,0,1,2.44-1.91A15.13,15.13,0,0,1,54,31.36a17.38,17.38,0,0,1,3.13-.64,30.32,30.32,0,0,1,3.1-.17c.77,0,1.79,0,3.06-.05a34,34,0,0,0,3.94-.33A20.8,20.8,0,0,0,71,29.28a4.88,4.88,0,0,0,2.51-1.66,2.2,2.2,0,0,0,.41-1,6.63,6.63,0,0,0,.07-1,7.12,7.12,0,0,0-.07-1.07,2.14,2.14,0,0,0-.41-1A4.89,4.89,0,0,0,71,21.91,20.8,20.8,0,0,0,67.18,21a34,34,0,0,0-3.94-.33c-1.27,0-2.29-.05-3.06-.05-.94,0-1.93,0-3,.05s-2.08.1-3.12.22a25,25,0,0,0-3.06.53,13.19,13.19,0,0,0-2.78,1,1.75,1.75,0,0,1-.79.23,1.59,1.59,0,0,1-1.54-1.55,1.26,1.26,0,0,1,.22-.78,3.07,3.07,0,0,1,.57-.57,4.51,4.51,0,0,1,.69-.37l.72-.28a16.18,16.18,0,0,1,2.84-.8c1-.19,2-.34,3.1-.46s2.12-.18,3.17-.21,2-.05,3-.05c1.18,0,2.34,0,3.5.09s2.33.16,3.5.31a32.5,32.5,0,0,1,3.5.66,11.06,11.06,0,0,1,3.18,1.3,7,7,0,0,1,2.29,2.22A6.28,6.28,0,0,1,77,25.62Z"/><path d="M112.65,34.47a6.19,6.19,0,0,1-.9,3.47,7.35,7.35,0,0,1-2.31,2.23,11.35,11.35,0,0,1-3.19,1.29,28.6,28.6,0,0,1-3.5.66c-1.18.15-2.34.25-3.5.29s-2.33.07-3.5.07c-.94,0-1.94,0-3,0s-2.13-.1-3.22-.22-2.14-.28-3.17-.48a17.07,17.07,0,0,1-2.86-.84l-.64-.26a2.49,2.49,0,0,1-.59-.35,2.73,2.73,0,0,1-.57-.55,1.21,1.21,0,0,1-.22-.77A1.56,1.56,0,0,1,82,37.85,1.46,1.46,0,0,1,83,37.37a1.76,1.76,0,0,1,.79.22,11.94,11.94,0,0,0,2.78,1,25.73,25.73,0,0,0,3.06.53c1,.12,2.09.19,3.13.22s2,0,3,0l1.9,0c.76,0,1.58,0,2.47-.11s1.78-.15,2.71-.28a22.05,22.05,0,0,0,2.62-.53,10.5,10.5,0,0,0,2.2-.84,3.64,3.64,0,0,0,1.46-1.25,2.38,2.38,0,0,0,.37-.93,5.69,5.69,0,0,0,.07-1,6.07,6.07,0,0,0-.07-1,2.4,2.4,0,0,0-.37-.95,3.73,3.73,0,0,0-1.46-1.26,11.08,11.08,0,0,0-2.2-.83,22.05,22.05,0,0,0-2.62-.53c-.93-.13-1.83-.23-2.71-.29s-1.71-.09-2.47-.11l-1.9,0c-.94,0-1.93,0-3,.05s-2.08.1-3.13.22a25.71,25.71,0,0,0-3.06.52,12.43,12.43,0,0,0-2.78,1,1.9,1.9,0,0,1-.79.22A1.54,1.54,0,0,1,82,31.08a1.46,1.46,0,0,1-.46-1.1V19.06A1.54,1.54,0,0,1,82,18,1.47,1.47,0,0,1,83,17.47h27.6a1.42,1.42,0,0,1,1.07.48,1.53,1.53,0,0,1,.47,1.09,1.44,1.44,0,0,1-.47,1.06,1.48,1.48,0,0,1-1.07.46H84.57v7.08A23.35,23.35,0,0,1,87.25,27c.94-.16,1.9-.28,2.86-.37S92,26.48,93,26.45s1.87,0,2.75,0c1.17,0,2.34,0,3.5.09s2.32.16,3.5.31a28.6,28.6,0,0,1,3.5.66,11.07,11.07,0,0,1,3.19,1.3A7.21,7.21,0,0,1,111.75,31,6.2,6.2,0,0,1,112.65,34.47Z"/><path d="M139.87,27.14s-.05,0-.05-.06l0-8.94a.05.05,0,0,1,.06-.06h1.45a.05.05,0,0,1,.06.06v7.4h2.68s.07,0,.07.07v1.47s0,.06-.07.06Z"/><path d="M145.6,27.08l1.61-8.95s0-.05.07-.05h1.88s.06,0,.07.05l1.55,9s0,.06-.05.06h-1.45s-.05,0-.06-.06l-.15-.95H147.3l-.14.95a.07.07,0,0,1-.07.06h-1.44S145.6,27.12,145.6,27.08Zm2-2.35h1.25l-.53-3.66-.08-.48,0,.48Z"/><path d="M156.66,27.14a.05.05,0,0,1-.06-.06V19.65h-1.69a.05.05,0,0,1-.06-.06V18.13s0-.05,0-.05h5s.07,0,.07.05v1.46a.05.05,0,0,1-.06.06h-1.7v7.43s0,.06-.05.06Z"/><path d="M161.56,27.14c-.05,0-.07,0-.07-.06l0-8.95s0-.05.05-.05H163s0,0,0,.05v9s0,.06-.05.06Z"/><path d="M165.05,27.14s-.05,0-.05-.06V18.13s0-.05.05-.05h4.19s.05,0,.05.06V19.6s0,0-.05,0h-2.67v2h2.67s.05,0,.05,0v1.47s0,.05-.05.05h-2.68v2.28h2.68s.05,0,.05.07v1.48s0,.05-.05.05Z"/><path d="M171.29,27.14c-.07,0-.1,0-.1-.09l0-8.87c0-.07,0-.1.11-.1h1.17l2.2,5.13-.06-5c0-.07,0-.1.12-.1H176c.05,0,.07,0,.07.1l0,8.89a.06.06,0,0,1-.07.07h-1.15l-2.25-4.79.09,4.69c0,.07,0,.1-.11.1Z"/><path d="M178.06,27.14a.05.05,0,0,1-.06-.06l0-8.95s0-.05.05-.05l2.43,0a2.54,2.54,0,0,1,1.31.34,2.7,2.7,0,0,1,1,1,2.54,2.54,0,0,1,.35,1.31V24.4a2.58,2.58,0,0,1-.37,1.37,2.72,2.72,0,0,1-2.35,1.36Zm1.53-1.6h.81a1.07,1.07,0,0,0,.81-.34,1.09,1.09,0,0,0,.33-.8V20.64a1,1,0,0,0-.3-.72,1,1,0,0,0-.73-.29h-.91Z"/><path d="M184.46,27.08l1.61-8.95s0-.05.07-.05H188s.05,0,.06.05l1.55,9s0,.06,0,.06h-1.45s0,0-.06-.06l-.14-.95h-1.78l-.14.95s0,.06-.06.06h-1.45S184.46,27.12,184.46,27.08Zm2-2.35h1.25l-.53-3.66-.08-.48-.05.48Z"/><path d="M139.89,41.8s-.07,0-.07-.06l0-9s0-.06.05-.06h2.44a2.49,2.49,0,0,1,1.31.34,2.65,2.65,0,0,1,.94.94,2.5,2.5,0,0,1,.35,1.31v3.74a2.71,2.71,0,0,1-.36,1.38,2.76,2.76,0,0,1-2.36,1.36Zm1.52-1.6h.81a1.07,1.07,0,0,0,.81-.34,1.09,1.09,0,0,0,.34-.81V35.3a1,1,0,0,0-.31-.72,1,1,0,0,0-.72-.3l-.91,0Z"/><path d="M146.81,41.8s-.05,0-.05-.06v-9s0-.06,0-.06H151s.06,0,.06.07v1.46s0,.05-.06.05h-2.67v2H151s.06,0,.06,0v1.48a0,0,0,0,1,0,.05h-2.69V40.2H151s0,0,0,.06v1.49a0,0,0,0,1,0,0Z"/><path d="M157.28,41.8s-.05,0-.05-.06V34.31h-1.69s-.07,0-.07-.06l0-1.46s0-.06,0-.06h5a.05.05,0,0,1,.06.06v1.46s0,.06-.05.06h-1.71l0,7.43s0,.06-.05.06Z"/><path d="M162.17,41.8s0,0,0-.06v-9s0-.06.05-.06h4.19s0,0,0,.07v1.46a0,0,0,0,1,0,.05H163.7v2h2.67a0,0,0,0,1,0,0v1.48a0,0,0,0,1-.05.05H163.7V40.2h2.68s.05,0,.05.06v1.49a0,0,0,0,1-.05,0Z"/><path d="M168.41,41.8c-.07,0-.1,0-.1-.09l0-8.87a.1.1,0,0,1,.11-.11h1.17l2.2,5.14-.06-5c0-.07,0-.11.12-.11h1.29s.07,0,.07.11l0,8.88c0,.06,0,.08-.07.08H172L169.74,37l.09,4.69c0,.07,0,.1-.12.1Z"/><path d="M175.18,41.8a.05.05,0,0,1-.06-.06v-9s0-.06.05-.06h1.46s.05,0,.05.06l0,9s0,.06-.05.06Z"/><path d="M180.9,41.93a2.38,2.38,0,0,1-1.28-.36,2.57,2.57,0,0,1-.93-1,2.54,2.54,0,0,1-.34-1.31v-.6a.05.05,0,0,1,.06-.06h1.46a.05.05,0,0,1,.06.06v.6a1,1,0,0,0,.28.74.93.93,0,0,0,.69.31.9.9,0,0,0,.69-.32,1.05,1.05,0,0,0,.29-.73,1,1,0,0,0-.63-.83l-.65-.37-.83-.46a2.74,2.74,0,0,1-1.06-1,2.94,2.94,0,0,1-.35-1.43,2.52,2.52,0,0,1,.35-1.31,2.67,2.67,0,0,1,.94-.92,2.47,2.47,0,0,1,1.25-.34,2.43,2.43,0,0,1,1.27.35,2.64,2.64,0,0,1,.93.92,2.5,2.5,0,0,1,.34,1.3v1.07s0,0-.05,0h-1.46a0,0,0,0,1-.05,0V35.17a1,1,0,0,0-.29-.74.94.94,0,0,0-.68-.29.89.89,0,0,0-.69.31,1,1,0,0,0-.28.72,1.33,1.33,0,0,0,.18.72,1.71,1.71,0,0,0,.66.54l.26.14.41.22c.14.09.28.16.39.22l.22.11a3.25,3.25,0,0,1,1,.9,2.16,2.16,0,0,1,.38,1.29,2.63,2.63,0,0,1-.35,1.34,2.67,2.67,0,0,1-.92.94A2.49,2.49,0,0,1,180.9,41.93Z"/><path d="M127,16.66a1,1,0,0,0-1,1V42.38a1,1,0,0,0,2,0V17.62A1,1,0,0,0,127,16.66Z"/></svg>