<svg id="Capa_1" data-name="Capa 1" xmlns="http://www.w3.org/2000/svg" viewBox="0 0 125 60"><title>op2_short</title><path d="M41.52,34.47a6.19,6.19,0,0,1-.9,3.47,7.35,7.35,0,0,1-2.31,2.23,11.29,11.29,0,0,1-3.2,1.29,28.1,28.1,0,0,1-3.49.66c-1.18.15-2.34.25-3.5.29s-2.33.07-3.5.07c-.94,0-1.94,0-3,0s-2.12-.1-3.21-.22-2.14-.28-3.17-.48a16.79,16.79,0,0,1-2.86-.84l-.64-.26a2.3,2.3,0,0,1-.59-.35,2.73,2.73,0,0,1-.57-.55,1.21,1.21,0,0,1-.22-.77,1.56,1.56,0,0,1,.46-1.11,1.46,1.46,0,0,1,1.08-.48,1.76,1.76,0,0,1,.79.22,11.77,11.77,0,0,0,2.78,1,25.73,25.73,0,0,0,3.06.53c1,.12,2.09.19,3.13.22s2,0,3,0l1.89,0c.77,0,1.59,0,2.47-.11s1.79-.15,2.72-.28a22.05,22.05,0,0,0,2.62-.53,10.5,10.5,0,0,0,2.2-.84A3.7,3.7,0,0,0,38,36.36a2.38,2.38,0,0,0,.37-.93,5.69,5.69,0,0,0,.07-1,6.07,6.07,0,0,0-.07-1,2.4,2.4,0,0,0-.37-.95,3.81,3.81,0,0,0-1.46-1.26,11.08,11.08,0,0,0-2.2-.83,22.05,22.05,0,0,0-2.62-.53c-.93-.13-1.83-.23-2.72-.29s-1.7-.09-2.47-.11l-1.89,0c-.94,0-1.93,0-3,.05s-2.08.1-3.13.22a25.71,25.71,0,0,0-3.06.52,12.25,12.25,0,0,0-2.78,1,1.9,1.9,0,0,1-.79.22,1.54,1.54,0,0,1-1.08-.44,1.46,1.46,0,0,1-.46-1.1V19.06a1.54,1.54,0,0,1,.46-1.1,1.45,1.45,0,0,1,1.08-.49H39.49a1.44,1.44,0,0,1,1.08.48A1.53,1.53,0,0,1,41,19a1.44,1.44,0,0,1-.47,1.06,1.5,1.5,0,0,1-1.08.46H13.44v7.08A23.35,23.35,0,0,1,16.12,27c.94-.16,1.89-.28,2.86-.37s1.93-.15,2.89-.18,1.87,0,2.75,0c1.17,0,2.34,0,3.5.09s2.32.16,3.5.31a28.1,28.1,0,0,1,3.49.66,11,11,0,0,1,3.2,1.3A7.21,7.21,0,0,1,40.62,31,6.2,6.2,0,0,1,41.52,34.47Z"/><path d="M77,25.62a6.28,6.28,0,0,1-.89,3.48,7,7,0,0,1-2.29,2.22,10.48,10.48,0,0,1-3.18,1.27,32.35,32.35,0,0,1-3.5.64c-1.17.15-2.34.25-3.5.31s-2.32.09-3.5.09a24.36,24.36,0,0,0-3.32.24,14,14,0,0,0-3.28.87,8.31,8.31,0,0,0-2.71,1.75,6.36,6.36,0,0,0-1.65,2.95H75a1.44,1.44,0,0,1,1.07.48A1.54,1.54,0,0,1,76.56,41,1.54,1.54,0,0,1,75,42.52H47.46a1.43,1.43,0,0,1-1.12-.46,1.65,1.65,0,0,1-.42-1.16,8.2,8.2,0,0,1,.75-3.47,11.31,11.31,0,0,1,1.94-2.93,9.69,9.69,0,0,1,2.44-1.91A15.13,15.13,0,0,1,54,31.36a17.38,17.38,0,0,1,3.13-.64,30.32,30.32,0,0,1,3.1-.17c.77,0,1.79,0,3.06-.05a34,34,0,0,0,3.94-.33A20.8,20.8,0,0,0,71,29.28a4.88,4.88,0,0,0,2.51-1.66,2.2,2.2,0,0,0,.41-1,6.63,6.63,0,0,0,.07-1,7.12,7.12,0,0,0-.07-1.07,2.14,2.14,0,0,0-.41-1A4.89,4.89,0,0,0,71,21.91,20.8,20.8,0,0,0,67.18,21a34,34,0,0,0-3.94-.33c-1.27,0-2.29-.05-3.06-.05-.94,0-1.93,0-3,.05s-2.08.1-3.12.22a25,25,0,0,0-3.06.53,13.19,13.19,0,0,0-2.78,1,1.75,1.75,0,0,1-.79.23,1.59,1.59,0,0,1-1.54-1.55,1.26,1.26,0,0,1,.22-.78,3.07,3.07,0,0,1,.57-.57,4.51,4.51,0,0,1,.69-.37l.72-.28a16.18,16.18,0,0,1,2.84-.8c1-.19,2-.34,3.1-.46s2.12-.18,3.17-.21,2-.05,3-.05c1.18,0,2.34,0,3.5.09s2.33.16,3.5.31a32.5,32.5,0,0,1,3.5.66,11.06,11.06,0,0,1,3.18,1.3,7,7,0,0,1,2.29,2.22A6.28,6.28,0,0,1,77,25.62Z"/><path d="M112.65,34.47a6.19,6.19,0,0,1-.9,3.47,7.35,7.35,0,0,1-2.31,2.23,11.35,11.35,0,0,1-3.19,1.29,28.6,28.6,0,0,1-3.5.66c-1.18.15-2.34.25-3.5.29s-2.33.07-3.5.07c-.94,0-1.94,0-3,0s-2.13-.1-3.22-.22-2.14-.28-3.17-.48a17.07,17.07,0,0,1-2.86-.84l-.64-.26a2.49,2.49,0,0,1-.59-.35,2.73,2.73,0,0,1-.57-.55,1.21,1.21,0,0,1-.22-.77A1.56,1.56,0,0,1,82,37.85,1.46,1.46,0,0,1,83,37.37a1.76,1.76,0,0,1,.79.22,11.94,11.94,0,0,0,2.78,1,25.73,25.73,0,0,0,3.06.53c1,.12,2.09.19,3.13.22s2,0,3,0l1.9,0c.76,0,1.58,0,2.47-.11s1.78-.15,2.71-.28a22.05,22.05,0,0,0,2.62-.53,10.5,10.5,0,0,0,2.2-.84,3.64,3.64,0,0,0,1.46-1.25,2.38,2.38,0,0,0,.37-.93,5.69,5.69,0,0,0,.07-1,6.07,6.07,0,0,0-.07-1,2.4,2.4,0,0,0-.37-.95,3.73,3.73,0,0,0-1.46-1.26,11.08,11.08,0,0,0-2.2-.83,22.05,22.05,0,0,0-2.62-.53c-.93-.13-1.83-.23-2.71-.29s-1.71-.09-2.47-.11l-1.9,0c-.94,0-1.93,0-3,.05s-2.08.1-3.13.22a25.71,25.71,0,0,0-3.06.52,12.43,12.43,0,0,0-2.78,1,1.9,1.9,0,0,1-.79.22A1.54,1.54,0,0,1,82,31.08a1.46,1.46,0,0,1-.46-1.1V19.06A1.54,1.54,0,0,1,82,18,1.47,1.47,0,0,1,83,17.47h27.6a1.42,1.42,0,0,1,1.07.48,1.53,1.53,0,0,1,.47,1.09,1.44,1.44,0,0,1-.47,1.06,1.48,1.48,0,0,1-1.07.46H84.57v7.08A23.35,23.35,0,0,1,87.25,27c.94-.16,1.9-.28,2.86-.37S92,26.48,93,26.45s1.87,0,2.75,0c1.17,0,2.34,0,3.5.09s2.32.16,3.5.31a28.6,28.6,0,0,1,3.5.66,11.07,11.07,0,0,1,3.19,1.3A7.21,7.21,0,0,1,111.75,31,6.2,6.2,0,0,1,112.65,34.47Z"/></svg>