<?xml version="1.0" encoding="UTF-8" standalone="no"?>
<!DOCTYPE svg PUBLIC "-//W3C//DTD SVG 1.1//EN" "http://www.w3.org/Graphics/SVG/1.1/DTD/svg11.dtd">
<svg width="100%" height="100%" viewBox="0 0 1500 187" version="1.1" xmlns="http://www.w3.org/2000/svg" xmlns:xlink="http://www.w3.org/1999/xlink" xml:space="preserve" xmlns:serif="http://www.serif.com/" style="fill-rule:evenodd;clip-rule:evenodd;stroke-linejoin:round;stroke-miterlimit:2;">
    <g transform="matrix(4.16667,0,0,4.16667,-181.171,-182.779)">
        <path d="M352.412,59.972C368.016,53.724 377.733,50.126 403.481,43.867C389.507,44.791 358.574,46.915 337.257,51.076C337.257,51.076 352.081,59.777 352.412,59.972Z" style="fill-rule:nonzero;"/>
    </g>
    <g transform="matrix(4.16667,0,0,4.16667,-181.171,-182.779)">
        <path d="M303.886,80.671L324.281,80.671C328.321,74.552 332.341,71.567 337.023,68.246C333.479,66.878 329.919,65.555 326.299,64.276C313.274,70.025 306.029,77.74 303.886,80.671Z" style="fill-rule:nonzero;"/>
    </g>
    <g transform="matrix(4.16667,0,0,4.16667,-181.171,-182.779)">
        <path d="M307.918,58.402C289.736,64.906 279.609,71.968 272.782,80.671L295.313,80.671C297.508,77.615 305.868,68.803 321.578,62.675C317.245,61.211 309.718,58.859 307.918,58.402Z" style="fill-rule:nonzero;"/>
    </g>
    <g transform="matrix(4.16667,0,0,4.16667,-181.171,-182.779)">
        <path d="M317.258,44.705L267.429,44.705C317.666,53.787 341.872,65.457 380.796,81.962C377.47,79.476 323.819,47.872 317.258,44.705Z" style="fill-rule:nonzero;"/>
    </g>
    <g transform="matrix(4.16667,0,0,4.16667,-181.171,-182.779)">
        <path d="M208.614,52.163C198.662,52.163 191.975,58.085 191.975,66.901C191.975,75.309 199.128,81.649 208.614,81.649C218.419,81.649 225.267,75.584 225.267,66.901C225.267,58.085 218.575,52.163 208.614,52.163ZM208.61,74.39C204.453,74.39 201.07,71.004 201.07,66.841C201.07,62.712 204.453,59.352 208.61,59.352C212.752,59.352 216.124,62.712 216.124,66.841C216.124,71.004 212.752,74.39 208.61,74.39Z" style="fill-rule:nonzero;"/>
    </g>
    <g transform="matrix(4.16667,0,0,4.16667,-181.171,-182.779)">
        <path d="M175.069,52.61L169.079,52.61L169.079,60.223L173.138,60.236C176.438,60.236 179.124,63.088 179.124,66.594C179.124,70.902 175.65,72.995 173.301,73.053L165.878,73.053L165.878,44.705L156.678,44.705L156.678,80.68L173.238,80.68C180.56,80.68 188.398,75.148 188.398,66.912C188.398,57.959 181.621,52.61 175.069,52.61Z" style="fill-rule:nonzero;"/>
    </g>
    <g transform="matrix(4.16667,0,0,4.16667,-181.171,-182.779)">
        <path d="M92.122,66.649C92.122,63.09 94.991,60.193 98.516,60.193L105.802,60.193L99.92,70.009L108.708,70.009L114.623,60.76L114.623,52.631L97.067,52.651C89.41,52.651 83.182,58.938 83.182,66.665C83.182,74.392 89.41,80.68 97.066,80.68L114.678,80.68L114.678,73.103L98.516,73.103C94.991,73.103 92.122,70.208 92.122,66.649Z" style="fill-rule:nonzero;"/>
    </g>
    <g transform="matrix(4.16667,0,0,4.16667,-181.171,-182.779)">
        <path d="M65.935,44.705L43.481,44.705L43.481,80.679L52.4,80.679L52.4,52.554L63.972,52.564C67.146,52.569 70.536,54.257 70.536,58.987C70.536,62.604 67.986,65.348 64.415,65.348L55.494,65.343L55.494,72.84L61.747,72.84C67.117,73.057 69.491,75.521 69.526,80.827L69.526,88.52L78.885,88.52L78.885,78.278C78.885,72.85 75.041,70.092 71.341,69.162C77.153,67.196 80.014,62.679 80.014,57.202C80.014,49.484 72.706,44.705 65.935,44.705Z" style="fill-rule:nonzero;"/>
    </g>
    <g transform="matrix(4.16667,0,0,4.16667,-181.171,-182.779)">
        <path d="M250.121,65.698C256.312,63.756 258.079,60.363 258.101,53.617L258.101,52.579L249.005,52.579L249.005,54.101C249.005,58.621 247.084,61.859 242.822,61.859L238.494,61.861L238.494,44.705L229.259,44.705L229.259,80.679L238.494,80.679L238.494,69.463L241.807,69.463C246.4,69.463 249.206,72.108 249.206,76.277L249.206,80.679L258.385,80.679L258.385,76.579C258.385,71.204 255.996,67.321 250.121,65.698Z" style="fill-rule:nonzero;"/>
    </g>
    <g transform="matrix(4.16667,0,0,4.16667,-181.171,-182.779)">
        <path d="M127.991,66.649C127.991,63.09 130.858,60.193 134.384,60.193L141.669,60.193L135.789,70.009L144.577,70.009L150.491,60.76L150.491,52.631L132.936,52.651C125.278,52.651 119.05,58.938 119.05,66.665C119.05,74.392 125.278,80.68 132.935,80.68L150.545,80.68L150.545,73.103L134.384,73.103C130.858,73.103 127.991,70.208 127.991,66.649Z" style="fill-rule:nonzero;"/>
    </g>
</svg>
