<svg id="Capa_1" data-name="Capa 1" xmlns="http://www.w3.org/2000/svg" viewBox="0 0 125 125"><defs><style>.cls-1{fill:#d4dc00;}</style></defs><title>flavicon</title><g id="YSp235.tif"><path class="cls-1" d="M64.75,109.5H60.26c-.69-.07-1.38-.15-2.08-.2a43.89,43.89,0,0,1-11.7-2.61A46.57,46.57,0,0,1,21,84.6,45.55,45.55,0,0,1,15.7,66.69,46.7,46.7,0,0,1,27.64,31,46.81,46.81,0,0,1,56,16c.83-.12,1.68-.19,2.51-.29a1,1,0,0,1,.06.25,22.36,22.36,0,0,1-6.14,17.32c-2.83,3-5.81,5.89-8.73,8.83a28.19,28.19,0,0,0-4.52,5.8,27.46,27.46,0,0,0-3.38,18.61A26.12,26.12,0,0,0,41,78.62,27.83,27.83,0,0,0,83,81.3l8-8a23,23,0,0,1,17.88-6.8,3,3,0,0,1,.37.07c0,.22,0,.42,0,.61a45.12,45.12,0,0,1-2.67,11.58,46.64,46.64,0,0,1-25.3,26.84,44.64,44.64,0,0,1-13.58,3.63C66.73,109.31,65.74,109.4,64.75,109.5Z"/><path class="cls-1" d="M109.5,60.57v1.07a3.85,3.85,0,0,1-.48,0,29.37,29.37,0,0,0-6.55.4,26.91,26.91,0,0,0-13.9,7c-3.09,2.92-6,6-9,9a23,23,0,0,1-39-12.19,22.15,22.15,0,0,1,6-19.75c2.75-2.93,5.69-5.66,8.47-8.56a37.05,37.05,0,0,0,3.83-4.66A27,27,0,0,0,63.37,16.2c0-.22,0-.44,0-.69h.37c1,.06,2,.11,3,.2a44.66,44.66,0,0,1,13.85,3.4,46.72,46.72,0,0,1,22.67,20,45.86,45.86,0,0,1,6.06,19.43C109.36,59.19,109.44,59.88,109.5,60.57Z"/></g></svg>