<svg id="Capa_1" data-name="Capa 1" xmlns="http://www.w3.org/2000/svg" viewBox="0 0 204 60"><title>op1</title><path d="M114.79,32.37a1,1,0,0,0-.19-.45.89.89,0,0,0-.42-.31,3.82,3.82,0,0,0-1.46-.13c-.54,0-1,.06-1.46.06H110l-1.22,0-3.51,0h-3.51q1.73-2,3.29-4.11c1-1.38,2.13-2.74,3.29-4.1l1-1.09c.31-.36.63-.71.94-1.05l.72-.76a.88.88,0,0,0,.2-.93,1,1,0,0,0-.54-.61,3.25,3.25,0,0,0-.88-.29,6.25,6.25,0,0,0-1-.1l-.83-.05a82.56,82.56,0,0,0-8.78-.28,48.52,48.52,0,0,0-8.72,1l-.86.2c-.42.09-.88.22-1.38.37s-1,.34-1.52.55a7.27,7.27,0,0,0-1.34.66,2.07,2.07,0,0,0-.78.78.81.81,0,0,0,.12.9.71.71,0,0,0,.57.39,1.51,1.51,0,0,0,.68-.14,3.58,3.58,0,0,0,.66-.37,5.22,5.22,0,0,1,.59-.36,9.78,9.78,0,0,1,1.55-.61c.53-.16,1-.29,1.57-.4a45.41,45.41,0,0,1,9-1.09,71.49,71.49,0,0,1,9.07.37q-1.63,1.77-3.07,3.63c-1,1.25-1.94,2.5-2.93,3.77l-1.55,1.88c-.5.62-1,1.24-1.57,1.85H97.09l-2.17,0q-4.48.07-8.89.25t-8.85.73l-1.56.17c-.63.07-1.32.17-2.05.29s-1.46.29-2.19.49a10.17,10.17,0,0,0-1.95.78l0,0c-1.25.44-3.28,1.37-4.41,1.76-2.2.76-4.41,1.47-6.61,2.13a39.21,39.21,0,0,1-6.63,1.41c-.46.05-1,.12-1.7.22a14.21,14.21,0,0,1-2.07.16,7.9,7.9,0,0,1-2-.24,2.53,2.53,0,0,1-1.44-.92,3.39,3.39,0,0,1-.7-2.19,6.35,6.35,0,0,1,.55-2.28,7.85,7.85,0,0,1,.38-.77c.16,0,.25,0,.19,0l-.17,0,0-.07.36,0h-.35a11.74,11.74,0,0,1,.8-1.23q.77-1,1.44-1.8a28.68,28.68,0,0,1,4-3.56,39.81,39.81,0,0,1,4.49-2.88,38,38,0,0,1,5.09-2.37,26.41,26.41,0,0,1,5.39-1.46c.63-.09,1.29-.16,2-.19a10.76,10.76,0,0,1,2,.09,9.28,9.28,0,0,1,2,.47,5.82,5.82,0,0,1,1.73,1,.8.8,0,0,0,.54.21.94.94,0,0,0,.55-.16,1.08,1.08,0,0,0,.37-.42.79.79,0,0,0,0-.61,1.21,1.21,0,0,0-.56-.71,7.51,7.51,0,0,0-.83-.51,8.08,8.08,0,0,0-2.78-1.05,13.83,13.83,0,0,0-3-.21,21.73,21.73,0,0,0-6.69,1.28,41.14,41.14,0,0,0-6.26,2.83,45.61,45.61,0,0,0-5.72,3.78,28.31,28.31,0,0,0-4.86,4.8,10.08,10.08,0,0,0-.59.82H41q1.73-2,3.29-4.11c1-1.38,2.14-2.74,3.29-4.1l1-1.09c.32-.36.63-.71,1-1.05l.71-.76a.88.88,0,0,0,.21-.93,1.06,1.06,0,0,0-.55-.61,3.14,3.14,0,0,0-.88-.29,6.25,6.25,0,0,0-1-.1l-.83-.05a82.48,82.48,0,0,0-8.78-.28,48.62,48.62,0,0,0-8.72,1l-.86.2c-.42.09-.88.22-1.37.37s-1,.34-1.53.55a7.27,7.27,0,0,0-1.34.66,2.22,2.22,0,0,0-.78.78.81.81,0,0,0,.12.9.72.72,0,0,0,.58.39,1.47,1.47,0,0,0,.67-.14,4,4,0,0,0,.67-.37,4.46,4.46,0,0,1,.59-.36A9.67,9.67,0,0,1,28,21.47c.53-.16,1.06-.29,1.58-.4a45.4,45.4,0,0,1,9-1.09,71.41,71.41,0,0,1,9.07.37Q46,22.12,44.59,24c-1,1.25-1.94,2.5-2.94,3.77l-1.54,1.88c-.51.62-1,1.24-1.58,1.85H36.36l-2.17,0q-4.47.07-8.88.25t-8.85.73l-1.56.17c-.64.07-1.32.17-2.06.29s-1.46.29-2.18.49a9.67,9.67,0,0,0-1.95.78,4,4,0,0,0-1.36,1.16A2.23,2.23,0,0,0,7,37a2.58,2.58,0,0,0,.61,1.41,4.61,4.61,0,0,0,1.24,1,8.22,8.22,0,0,0,1.54.69c.54.18,1,.33,1.49.44a24.57,24.57,0,0,0,4.06.75,40.31,40.31,0,0,0,4.12.2c1.15,0,2.3,0,3.46-.13a28.16,28.16,0,0,0,3.42-.49,22.54,22.54,0,0,0,3.32-1,18,18,0,0,0,3.12-1.53A23.85,23.85,0,0,0,36,36.49a29.37,29.37,0,0,0,2.44-2.2c.25-.25.46-.46.61-.64a1,1,0,0,1,.82-.27h3a9.6,9.6,0,0,0-.65,1.84,6.45,6.45,0,0,0-.15,2.47A4.41,4.41,0,0,0,43.13,40a3.38,3.38,0,0,0,1.63,1.25,8.47,8.47,0,0,0,2.17.48,12.73,12.73,0,0,0,2.31,0l2-.22a43.29,43.29,0,0,0,6.87-1.37q3.38-1,6.68-2.07c1-.33,1.93-.71,2.86-1.09v0a2.51,2.51,0,0,0,.61,1.41,4.72,4.72,0,0,0,1.23,1,8.31,8.31,0,0,0,1.55.69c.54.18,1,.33,1.49.44a24.27,24.27,0,0,0,4.05.75,40.44,40.44,0,0,0,4.12.2c1.15,0,2.31,0,3.46-.13a28.61,28.61,0,0,0,3.43-.49,22.9,22.9,0,0,0,3.32-1,18.78,18.78,0,0,0,3.12-1.53,24.8,24.8,0,0,0,2.68-1.9,31.06,31.06,0,0,0,2.44-2.2c.25-.25.45-.46.61-.64a1,1,0,0,1,.81-.27h5.33l5.8.06a5,5,0,0,1,.62.05,6,6,0,0,0,.75.07,4.32,4.32,0,0,0,.73,0,1.43,1.43,0,0,0,.58-.22,1,1,0,0,0,.32-.43A1.27,1.27,0,0,0,114.79,32.37ZM35.92,34.09a17.23,17.23,0,0,1-1.51,1.37A20.15,20.15,0,0,1,32.22,37a11.82,11.82,0,0,1-2.81,1.26,30.85,30.85,0,0,1-7.22,1.29c-1,0-2,.07-3.09.08a29.75,29.75,0,0,1-3.26-.15,22.5,22.5,0,0,1-3.18-.56,10.3,10.3,0,0,1-2.85-1.17q-.86-.48-.9-.93c0-.31.22-.59.76-.83a11.44,11.44,0,0,1,3.45-1.11c1.23-.19,2.43-.35,3.61-.49q5-.6,10-.78t10-.23A4.68,4.68,0,0,0,35.92,34.09Zm8-2.57,0,0h0c-.43,0,.06,0-.35,0C43.36,31.52,43.62,31.52,43.94,31.52Zm52.71,2.57a18.82,18.82,0,0,1-1.51,1.37A21.18,21.18,0,0,1,93,37a12.19,12.19,0,0,1-2.81,1.26,31,31,0,0,1-7.23,1.29c-1,0-2,.07-3.08.08a29.64,29.64,0,0,1-3.26-.15,22.64,22.64,0,0,1-3.19-.56,10.3,10.3,0,0,1-2.85-1.17c-.56-.32-.86-.63-.89-.93s.22-.59.76-.83l.47-.22.3-.1,0,0a12,12,0,0,1,2.7-.76c1.23-.19,2.44-.35,3.61-.49,3.33-.4,6.64-.66,10-.78s6.64-.19,10-.23A4.81,4.81,0,0,0,96.65,34.09Z"/><path d="M139.55,26.61h2.95v1.2h-4.3V20.64h1.35Z"/><path d="M148.64,26.32H146l-.45,1.49h-1.42l2.26-7.17h1.89l2.26,7.17h-1.42Zm-2.32-1.17h2l-1-3.39Z"/><path d="M156.83,21.84h-2v-1.2h5.36v1.2h-2v6h-1.35Z"/><path d="M163.41,27.81h-1.35V20.64h1.35Z"/><path d="M165.61,20.64H170v1.2h-3v1.73h2.8v1.19H167v1.85h3v1.2h-4.39Z"/><path d="M173.33,22.37v5.44H172V20.64h1.8l2.72,5.44V20.64h1.33v7.17h-1.81Z"/><path d="M182.72,20.64c1.76,0,2.37.89,2.37,1.93v3.31c0,1-.61,1.93-2.37,1.93h-2.67V20.64Zm-1.32,6h1.18c.91,0,1.16-.36,1.16-1.05V22.89c0-.69-.25-1.05-1.16-1.05H181.4Z"/><path d="M191.17,26.32h-2.65l-.45,1.49h-1.42l2.26-7.17h1.89l2.26,7.17h-1.42Zm-2.32-1.17h2l-1-3.39Z"/><path d="M140.87,32.74c1.76,0,2.37.89,2.37,1.93V38c0,1-.61,1.92-2.37,1.92H138.2V32.74Zm-1.32,6h1.18c.91,0,1.16-.36,1.16-1.05V35c0-.69-.25-1.05-1.16-1.05h-1.18Z"/><path d="M145.32,32.74h4.39v1.2h-3v1.73h2.8v1.19h-2.8v1.85h3V39.9h-4.39Z"/><path d="M156.34,33.94h-2v-1.2h5.35v1.2h-2v6h-1.35Z"/><path d="M161.54,32.74h4.39v1.2h-3v1.73h2.79v1.19H162.9v1.85h3V39.9h-4.39Z"/><path d="M169.26,34.47V39.9h-1.33V32.74h1.81l2.72,5.44V32.74h1.33V39.9H172Z"/><path d="M177.36,39.9H176V32.74h1.36Z"/><path d="M181.57,40a5.93,5.93,0,0,1-2.23-.43l.23-1.06a7,7,0,0,0,2,.33c1,0,1.14-.2,1.14-.89s0-.86-1.32-1.14c-1.73-.39-2-.72-2-2.24,0-1.3.59-1.95,2.41-1.95a9.85,9.85,0,0,1,2.08.24L183.8,34a9.31,9.31,0,0,0-1.91-.21c-.92,0-1.08.19-1.08.81,0,.82,0,.84,1.26,1.14,1.92.47,2,.78,2,2.21S183.69,40,181.57,40Z"/><path d="M126.28,17.67c-.35,0-.61.38-.61.89V41.44c0,.51.26.89.61.89s.6-.38.6-.89V18.56C126.88,18.05,126.62,17.67,126.28,17.67Z"/></svg>