<svg id="Capa_1" data-name="Capa 1" xmlns="http://www.w3.org/2000/svg" viewBox="0 0 125 60"><title>op1_short</title><path d="M114.29,32.37a1,1,0,0,0-.19-.45.89.89,0,0,0-.42-.31,3.82,3.82,0,0,0-1.46-.13c-.54,0-1,.06-1.46.06h-1.25l-1.22,0-3.51,0h-3.51q1.73-2,3.29-4.11c1-1.38,2.13-2.74,3.29-4.1l1-1.09c.31-.36.63-.71.94-1.05l.72-.76a.88.88,0,0,0,.2-.93,1,1,0,0,0-.54-.61,3.25,3.25,0,0,0-.88-.29,6.25,6.25,0,0,0-1-.1l-.83-.05a82.56,82.56,0,0,0-8.78-.28,48.52,48.52,0,0,0-8.72,1l-.86.2c-.42.09-.88.22-1.38.37s-1,.34-1.52.55a7.27,7.27,0,0,0-1.34.66,2.07,2.07,0,0,0-.78.78.81.81,0,0,0,.12.9.71.71,0,0,0,.57.39,1.51,1.51,0,0,0,.68-.14,3.58,3.58,0,0,0,.66-.37,5.22,5.22,0,0,1,.59-.36,9.78,9.78,0,0,1,1.55-.61c.53-.16,1-.29,1.57-.4a45.41,45.41,0,0,1,9-1.09,71.49,71.49,0,0,1,9.07.37q-1.63,1.77-3.07,3.63c-1,1.25-1.94,2.5-2.93,3.77l-1.55,1.88c-.5.62-1,1.24-1.57,1.85H96.59l-2.17,0q-4.48.07-8.89.25t-8.85.73l-1.56.17c-.63.07-1.32.17-2.05.29s-1.46.29-2.19.49a10.17,10.17,0,0,0-1.95.78l0,0c-1.25.44-3.28,1.37-4.41,1.76-2.2.76-4.41,1.47-6.61,2.13a39.21,39.21,0,0,1-6.63,1.41c-.46.05-1,.12-1.7.22a14.21,14.21,0,0,1-2.07.16,7.9,7.9,0,0,1-2-.24,2.53,2.53,0,0,1-1.44-.92,3.39,3.39,0,0,1-.7-2.19,6.35,6.35,0,0,1,.55-2.28,7.85,7.85,0,0,1,.38-.77c.16,0,.25,0,.19,0l-.17,0,0-.07.36,0h-.35a11.74,11.74,0,0,1,.8-1.23q.77-1,1.44-1.8a28.68,28.68,0,0,1,4-3.56,39.81,39.81,0,0,1,4.49-2.88,38,38,0,0,1,5.09-2.37,26.41,26.41,0,0,1,5.39-1.46c.63-.09,1.29-.16,2-.19a10.76,10.76,0,0,1,2,.09,9.28,9.28,0,0,1,2,.47,5.82,5.82,0,0,1,1.73,1,.8.8,0,0,0,.54.21.94.94,0,0,0,.55-.16,1.08,1.08,0,0,0,.37-.42.79.79,0,0,0,0-.61,1.21,1.21,0,0,0-.56-.71,7.51,7.51,0,0,0-.83-.51,8.08,8.08,0,0,0-2.78-1.05,13.83,13.83,0,0,0-3-.21,21.73,21.73,0,0,0-6.69,1.28,41.14,41.14,0,0,0-6.26,2.83,45.61,45.61,0,0,0-5.72,3.78,28.31,28.31,0,0,0-4.86,4.8,10.08,10.08,0,0,0-.59.82H40.54q1.73-2,3.29-4.11c1-1.38,2.14-2.74,3.29-4.1l1-1.09c.32-.36.63-.71,1-1.05l.71-.76a.88.88,0,0,0,.21-.93,1.06,1.06,0,0,0-.55-.61,3.14,3.14,0,0,0-.88-.29,6.25,6.25,0,0,0-1-.1l-.83-.05a82.48,82.48,0,0,0-8.78-.28,48.62,48.62,0,0,0-8.72,1l-.86.2c-.42.09-.88.22-1.37.37s-1,.34-1.53.55a7.27,7.27,0,0,0-1.34.66,2.22,2.22,0,0,0-.78.78.81.81,0,0,0,.12.9A.72.72,0,0,0,24,23a1.47,1.47,0,0,0,.67-.14,4,4,0,0,0,.67-.37,4.46,4.46,0,0,1,.59-.36,9.67,9.67,0,0,1,1.54-.61c.53-.16,1.06-.29,1.58-.4a45.4,45.4,0,0,1,9-1.09,71.41,71.41,0,0,1,9.07.37Q45.53,22.12,44.09,24c-1,1.25-1.94,2.5-2.94,3.77l-1.54,1.88c-.51.62-1,1.24-1.58,1.85H35.86l-2.17,0q-4.47.07-8.88.25T16,32.49l-1.56.17c-.64.07-1.32.17-2.06.29s-1.46.29-2.18.49a9.67,9.67,0,0,0-1.95.78,4,4,0,0,0-1.36,1.16A2.23,2.23,0,0,0,6.46,37a2.58,2.58,0,0,0,.61,1.41,4.61,4.61,0,0,0,1.24,1,8.22,8.22,0,0,0,1.54.69c.54.18,1,.33,1.49.44a24.57,24.57,0,0,0,4.06.75,40.31,40.31,0,0,0,4.12.2c1.15,0,2.3,0,3.46-.13a28.16,28.16,0,0,0,3.42-.49,22.54,22.54,0,0,0,3.32-1,18,18,0,0,0,3.12-1.53,23.85,23.85,0,0,0,2.68-1.9A29.37,29.37,0,0,0,38,34.29c.25-.25.46-.46.61-.64a1,1,0,0,1,.82-.27h3a9.6,9.6,0,0,0-.65,1.84,6.45,6.45,0,0,0-.15,2.47A4.41,4.41,0,0,0,42.63,40a3.38,3.38,0,0,0,1.63,1.25,8.47,8.47,0,0,0,2.17.48,12.73,12.73,0,0,0,2.31,0l2-.22a43.29,43.29,0,0,0,6.87-1.37q3.38-1,6.68-2.07c1-.33,1.93-.71,2.86-1.09v0a2.51,2.51,0,0,0,.61,1.41,4.72,4.72,0,0,0,1.23,1,8.31,8.31,0,0,0,1.55.69c.54.18,1,.33,1.49.44a24.27,24.27,0,0,0,4.05.75,40.44,40.44,0,0,0,4.12.2c1.15,0,2.31,0,3.46-.13a28.61,28.61,0,0,0,3.43-.49,22.9,22.9,0,0,0,3.32-1,18.78,18.78,0,0,0,3.12-1.53,24.8,24.8,0,0,0,2.68-1.9,31.06,31.06,0,0,0,2.44-2.2c.25-.25.45-.46.61-.64a1,1,0,0,1,.81-.27h5.33l5.8.06a5,5,0,0,1,.62.05,6,6,0,0,0,.75.07,4.32,4.32,0,0,0,.73,0,1.43,1.43,0,0,0,.58-.22,1,1,0,0,0,.32-.43A1.27,1.27,0,0,0,114.29,32.37ZM35.42,34.09a17.23,17.23,0,0,1-1.51,1.37A20.15,20.15,0,0,1,31.72,37a11.82,11.82,0,0,1-2.81,1.26,30.85,30.85,0,0,1-7.22,1.29c-1,0-2,.07-3.09.08a29.75,29.75,0,0,1-3.26-.15,22.5,22.5,0,0,1-3.18-.56,10.3,10.3,0,0,1-2.85-1.17q-.86-.48-.9-.93c0-.31.22-.59.76-.83a11.44,11.44,0,0,1,3.45-1.11c1.23-.19,2.43-.35,3.61-.49q5-.6,10-.78t10-.23A4.68,4.68,0,0,0,35.42,34.09Zm8-2.57,0,0h0c-.43,0,.06,0-.35,0C42.86,31.52,43.12,31.52,43.44,31.52Zm52.71,2.57a18.82,18.82,0,0,1-1.51,1.37A21.18,21.18,0,0,1,92.45,37a12.19,12.19,0,0,1-2.81,1.26,31,31,0,0,1-7.23,1.29c-1,0-2,.07-3.08.08a29.64,29.64,0,0,1-3.26-.15,22.64,22.64,0,0,1-3.19-.56A10.3,10.3,0,0,1,70,37.75c-.56-.32-.86-.63-.89-.93s.22-.59.76-.83l.47-.22.3-.1,0,0a12,12,0,0,1,2.7-.76c1.23-.19,2.44-.35,3.61-.49,3.33-.4,6.64-.66,10-.78s6.64-.19,10-.23A4.81,4.81,0,0,0,96.15,34.09Z"/></svg>