<svg id="Capa_1" data-name="Capa 1" xmlns="http://www.w3.org/2000/svg" viewBox="0 0 212 60"><defs><style>.cls-1{fill:#d4dc00;}</style></defs><title>op3</title><g id="YSp235.tif"><path class="cls-1" d="M30.11,46.57H28.56l-.72-.07a15.07,15.07,0,0,1-4-.9A16.1,16.1,0,0,1,15,38a15.79,15.79,0,0,1-1.83-6.19,16.23,16.23,0,0,1,13.9-17.52l.87-.1a.81.81,0,0,1,0,.09,7.69,7.69,0,0,1-2.12,6c-1,1-2,2-3,3.05a10.17,10.17,0,0,0-1.57,2,9.48,9.48,0,0,0-1.16,6.42,8.94,8.94,0,0,0,1.81,4.2,9.62,9.62,0,0,0,14.52.92c.92-.93,1.84-1.85,2.77-2.77a7.92,7.92,0,0,1,6.17-2.35l.13,0a1.34,1.34,0,0,1,0,.21,15.13,15.13,0,0,1-.93,4,16.06,16.06,0,0,1-8.73,9.27,15.6,15.6,0,0,1-4.69,1.26Z"/><path class="cls-1" d="M45.57,29.67V30H45.4a10.07,10.07,0,0,0-2.26.14,9.22,9.22,0,0,0-4.8,2.4c-1.07,1-2.08,2.07-3.13,3.1a7.93,7.93,0,0,1-13.46-4.21,7.66,7.66,0,0,1,2.07-6.83c.95-1,2-1.95,2.92-3a12.68,12.68,0,0,0,1.33-1.6,9.33,9.33,0,0,0,1.56-5.74v-.24h.13l1,.07a15.51,15.51,0,0,1,4.78,1.17,16.15,16.15,0,0,1,7.83,6.9A15.88,15.88,0,0,1,45.5,29C45.52,29.2,45.54,29.43,45.57,29.67Z"/></g><g id="llP2TB.tif"><path class="cls-1" d="M66.32,14.27c1,8.64,5.66,14.08,14,16.51A16.28,16.28,0,0,1,61.86,46.44c-.14-.85-.23-1.72-.44-2.55-1.69-6.84-5.85-11.36-12.61-13.45l-.59-.16c-.5-.11-.52-.11-.49-.62a15.58,15.58,0,0,1,2.13-7.35,16.44,16.44,0,0,1,8.2-7.14,16,16,0,0,1,7.26-1.05C65.68,14.15,66,14.23,66.32,14.27Z"/><path class="cls-1" d="M67.91,14.56A16.16,16.16,0,0,1,80.26,29.29a16.09,16.09,0,0,1-8.39-5.13A15.62,15.62,0,0,1,67.91,14.56Z"/><path class="cls-1" d="M47.77,31.66A16.39,16.39,0,0,1,60.33,46.2,16.23,16.23,0,0,1,47.77,31.66Z"/></g><g id="YSp235.tif-2" data-name="YSp235.tif"><path class="cls-1" d="M97.89,46.57h1.55l.72-.07a15.07,15.07,0,0,0,4-.9A16.1,16.1,0,0,0,113,38a15.79,15.79,0,0,0,1.83-6.19,16.23,16.23,0,0,0-13.9-17.52l-.87-.1a.81.81,0,0,0,0,.09,7.69,7.69,0,0,0,2.12,6c1,1,2,2,3,3.05a10.17,10.17,0,0,1,1.57,2,9.48,9.48,0,0,1,1.16,6.42,8.94,8.94,0,0,1-1.81,4.2,9.62,9.62,0,0,1-14.52.92c-.92-.93-1.84-1.85-2.77-2.77a7.92,7.92,0,0,0-6.17-2.35l-.13,0a1.34,1.34,0,0,0,0,.21,15.13,15.13,0,0,0,.93,4,16.06,16.06,0,0,0,8.73,9.27,15.6,15.6,0,0,0,4.69,1.26Z"/><path class="cls-1" d="M82.43,29.67V30h.17a10.07,10.07,0,0,1,2.26.14,9.22,9.22,0,0,1,4.8,2.4c1.07,1,2.08,2.07,3.13,3.1a7.93,7.93,0,0,0,13.46-4.21,7.66,7.66,0,0,0-2.07-6.83c-1-1-2-1.95-2.92-3a12.68,12.68,0,0,1-1.33-1.6,9.33,9.33,0,0,1-1.56-5.74v-.24h-.13l-1,.07a15.51,15.51,0,0,0-4.78,1.17,16.15,16.15,0,0,0-7.83,6.9A15.88,15.88,0,0,0,82.5,29C82.48,29.2,82.46,29.43,82.43,29.67Z"/></g><path d="M133.82,12.51V8.86h7.31V40c0,2.55-.88,6.21-2.66,8.3a10.59,10.59,0,0,1-7.78,3.34H127V44.36h3.65c1.36,0,1.62-.1,2.14-.73a5.05,5.05,0,0,0,1-3.6Z"/><path d="M172.91,34.7l6.78,2.72c-1.25,3.13-3.81,6.1-6.05,7.15a21.48,21.48,0,0,1-7.31,1.36c-4,.1-8.62-1.31-11.44-4-3-2.87-4.54-9.82-4.69-14.78v-.1c.05-4.91,1.72-12,4.69-14.83,2.82-2.61,7.47-4,11.44-3.91a20.55,20.55,0,0,1,7.93,1.88c3.34,1.67,4.91,5.63,5.33,6.68l-6.79,2.71c-.42-1-.94-2.4-1.77-2.82a10.83,10.83,0,0,0-4.81-1.14h-.05c-2.87-.11-4.7.47-6.26,1.93-1.41,1.3-2.35,5.43-2.41,9.5.16,4.12,1.05,8.25,2.41,9.55,1.56,1.52,3.39,2.09,6.31,2h.05a12.17,12.17,0,0,0,4.34-.73C171.39,37.57,172.07,36.69,172.91,34.7Z"/><path d="M191.59,12.51V8.86h7.31V40c0,2.55-.89,6.21-2.66,8.3a10.61,10.61,0,0,1-7.78,3.34H184.8V44.36h3.66c1.36,0,1.62-.1,2.14-.73a5.05,5.05,0,0,0,1-3.6Z"/></svg>