<svg id="Capa_1" data-name="Capa 1" xmlns="http://www.w3.org/2000/svg" viewBox="0 0 125 60"><defs><style>.cls-1{fill:#d4dc00;}</style></defs><title>op3_short</title><g id="YSp235.tif"><path class="cls-1" d="M28.61,46.23H27.06l-.72-.07a14.7,14.7,0,0,1-4-.9,16.1,16.1,0,0,1-8.8-7.63,15.79,15.79,0,0,1-1.83-6.18,16.11,16.11,0,0,1,4.12-12.34,16.26,16.26,0,0,1,9.78-5.19l.87-.09c0,.05,0,.06,0,.08a7.68,7.68,0,0,1-2.12,6c-1,1.05-2,2-3,3.05a10.17,10.17,0,0,0-1.57,2,9.48,9.48,0,0,0-1.16,6.42,8.94,8.94,0,0,0,1.81,4.2A9.66,9.66,0,0,0,31,38.93a9.59,9.59,0,0,0,4-2.44l2.77-2.77a8.31,8.31,0,0,1,1.66-1.29,8,8,0,0,1,4.51-1.06l.13,0a1.55,1.55,0,0,1,0,.22,15.31,15.31,0,0,1-.93,4,16.09,16.09,0,0,1-8.73,9.27,15.59,15.59,0,0,1-4.69,1.25Z"/><path class="cls-1" d="M44.07,29.33v.37H43.9a10.07,10.07,0,0,0-2.26.14,9.29,9.29,0,0,0-4.8,2.4c-1.07,1-2.08,2.07-3.13,3.1a7.93,7.93,0,0,1-13.46-4.21,7.67,7.67,0,0,1,2.07-6.83c.95-1,2-1.95,2.92-2.95a12.78,12.78,0,0,0,1.33-1.61A9.33,9.33,0,0,0,28.13,14v-.24h.13l1,.07A15.51,15.51,0,0,1,34.08,15a16.15,16.15,0,0,1,7.83,6.9A15.88,15.88,0,0,1,44,28.62C44,28.86,44,29.1,44.07,29.33Z"/></g><g id="llP2TB.tif"><path class="cls-1" d="M64.82,13.94c1,8.63,5.66,14.07,14,16.5A16.29,16.29,0,0,1,60.36,46.11c-.14-.86-.23-1.73-.44-2.56-1.69-6.84-5.85-11.36-12.61-13.45l-.59-.16c-.5-.11-.52-.11-.49-.62A15.58,15.58,0,0,1,48.36,22a16.42,16.42,0,0,1,8.2-7.13,16,16,0,0,1,7.26-1.05A8.5,8.5,0,0,1,64.82,13.94Z"/><path class="cls-1" d="M66.41,14.22A16.17,16.17,0,0,1,78.76,29a16.17,16.17,0,0,1-8.39-5.14A15.62,15.62,0,0,1,66.41,14.22Z"/><path class="cls-1" d="M46.27,31.33A16.36,16.36,0,0,1,58.83,45.86,16.23,16.23,0,0,1,46.27,31.33Z"/></g><g id="YSp235.tif-2" data-name="YSp235.tif"><path class="cls-1" d="M96.39,46.23h1.55l.72-.07a14.7,14.7,0,0,0,4-.9,16.1,16.1,0,0,0,8.8-7.63,15.79,15.79,0,0,0,1.83-6.18,16.11,16.11,0,0,0-4.12-12.34,16.26,16.26,0,0,0-9.78-5.19l-.87-.09c0,.05,0,.06,0,.08a7.68,7.68,0,0,0,2.12,6c1,1.05,2,2,3,3.05a10.17,10.17,0,0,1,1.57,2,9.48,9.48,0,0,1,1.16,6.42,8.94,8.94,0,0,1-1.81,4.2A9.66,9.66,0,0,1,94,38.93a9.59,9.59,0,0,1-4-2.44L87.3,33.72a8.31,8.31,0,0,0-1.66-1.29,8,8,0,0,0-4.51-1.06l-.13,0a1.55,1.55,0,0,0,0,.22,15.31,15.31,0,0,0,.93,4,16.09,16.09,0,0,0,8.73,9.27,15.59,15.59,0,0,0,4.69,1.25Z"/><path class="cls-1" d="M80.93,29.33v.37h.17a10.07,10.07,0,0,1,2.26.14,9.29,9.29,0,0,1,4.8,2.4c1.07,1,2.08,2.07,3.13,3.1a7.93,7.93,0,0,0,13.46-4.21,7.67,7.67,0,0,0-2.07-6.83c-1-1-2-1.95-2.92-2.95a12.78,12.78,0,0,1-1.33-1.61A9.33,9.33,0,0,1,96.87,14v-.24h-.13l-1,.07A15.51,15.51,0,0,0,90.92,15a16.15,16.15,0,0,0-7.83,6.9A15.88,15.88,0,0,0,81,28.62C81,28.86,81,29.1,80.93,29.33Z"/></g></svg>