<svg width="212" height="60" xmlns="http://www.w3.org/2000/svg">
 <defs>
  <style>.cls-1{fill:#d4dc00;}</style>
 </defs>
 <title>op3</title>
 <g>
  <title>background</title>
  <rect fill="none" id="canvas_background" height="402" width="582" y="-1" x="-1"/>
 </g>
 <g>
  <title>Layer 1</title>
  <g id="YSp235.tif">
   <path id="svg_1" d="m30.11,46.57l-1.55,0l-0.72,-0.07a15.07,15.07 0 0 1 -4,-0.9a16.1,16.1 0 0 1 -8.84,-7.6a15.79,15.79 0 0 1 -1.83,-6.19a16.23,16.23 0 0 1 13.9,-17.52l0.87,-0.1a0.81,0.81 0 0 1 0,0.09a7.69,7.69 0 0 1 -2.12,6c-1,1 -2,2 -3,3.05a10.17,10.17 0 0 0 -1.57,2a9.48,9.48 0 0 0 -1.16,6.42a8.94,8.94 0 0 0 1.81,4.2a9.62,9.62 0 0 0 14.52,0.92c0.92,-0.93 1.84,-1.85 2.77,-2.77a7.92,7.92 0 0 1 6.17,-2.35l0.13,0a1.34,1.34 0 0 1 0,0.21a15.13,15.13 0 0 1 -0.93,4a16.06,16.06 0 0 1 -8.73,9.27a15.6,15.6 0 0 1 -4.69,1.26l-1.03,0.08z" class="cls-1"/>
   <path id="svg_2" d="m45.57,29.67l0,0.33l-0.17,0a10.07,10.07 0 0 0 -2.26,0.14a9.22,9.22 0 0 0 -4.8,2.4c-1.07,1 -2.08,2.07 -3.13,3.1a7.93,7.93 0 0 1 -13.46,-4.21a7.66,7.66 0 0 1 2.07,-6.83c0.95,-1 2,-1.95 2.92,-3a12.68,12.68 0 0 0 1.33,-1.6a9.33,9.33 0 0 0 1.56,-5.74l0,-0.24l0.13,0l1,0.07a15.51,15.51 0 0 1 4.78,1.17a16.15,16.15 0 0 1 7.83,6.9a15.88,15.88 0 0 1 2.13,6.84c0.02,0.2 0.04,0.43 0.07,0.67z" class="cls-1"/>
  </g>
  <g id="llP2TB.tif">
   <path id="svg_3" d="m66.32,14.27c1,8.64 5.66,14.08 14,16.51a16.28,16.28 0 0 1 -18.46,15.66c-0.14,-0.85 -0.23,-1.72 -0.44,-2.55c-1.69,-6.84 -5.85,-11.36 -12.61,-13.45l-0.59,-0.16c-0.5,-0.11 -0.52,-0.11 -0.49,-0.62a15.58,15.58 0 0 1 2.13,-7.35a16.44,16.44 0 0 1 8.2,-7.14a16,16 0 0 1 7.26,-1.05c0.36,0.03 0.68,0.11 1,0.15z" class="cls-1"/>
   <path id="svg_4" d="m67.91,14.56a16.16,16.16 0 0 1 12.35,14.73a16.09,16.09 0 0 1 -8.39,-5.13a15.62,15.62 0 0 1 -3.96,-9.6z" class="cls-1"/>
   <path id="svg_5" d="m47.77,31.66a16.39,16.39 0 0 1 12.56,14.54a16.23,16.23 0 0 1 -12.56,-14.54z" class="cls-1"/>
  </g>
  <g id="YSp235.tif-2">
   <path id="svg_6" d="m97.89,46.57l1.55,0l0.72,-0.07a15.07,15.07 0 0 0 4,-0.9a16.1,16.1 0 0 0 8.84,-7.6a15.79,15.79 0 0 0 1.83,-6.19a16.23,16.23 0 0 0 -13.9,-17.52l-0.87,-0.1a0.81,0.81 0 0 0 0,0.09a7.69,7.69 0 0 0 2.12,6c1,1 2,2 3,3.05a10.17,10.17 0 0 1 1.57,2a9.48,9.48 0 0 1 1.16,6.42a8.94,8.94 0 0 1 -1.81,4.2a9.62,9.62 0 0 1 -14.52,0.92c-0.92,-0.93 -1.84,-1.85 -2.77,-2.77a7.92,7.92 0 0 0 -6.17,-2.35l-0.13,0a1.34,1.34 0 0 0 0,0.21a15.13,15.13 0 0 0 0.93,4a16.06,16.06 0 0 0 8.73,9.27a15.6,15.6 0 0 0 4.69,1.26l1.03,0.08z" class="cls-1"/>
   <path id="svg_7" d="m82.43,29.67l0,0.33l0.17,0a10.07,10.07 0 0 1 2.26,0.14a9.22,9.22 0 0 1 4.8,2.4c1.07,1 2.08,2.07 3.13,3.1a7.93,7.93 0 0 0 13.46,-4.21a7.66,7.66 0 0 0 -2.07,-6.83c-1,-1 -2,-1.95 -2.92,-3a12.68,12.68 0 0 1 -1.33,-1.6a9.33,9.33 0 0 1 -1.56,-5.74l0,-0.24l-0.13,0l-1,0.07a15.51,15.51 0 0 0 -4.78,1.17a16.15,16.15 0 0 0 -7.83,6.9a15.88,15.88 0 0 0 -2.13,6.84c-0.02,0.2 -0.04,0.43 -0.07,0.67z" class="cls-1"/>
  </g>
  <path fill="#ffffff" id="svg_8" d="m133.82,12.51l0,-3.65l7.31,0l0,31.14c0,2.55 -0.88,6.21 -2.66,8.3a10.59,10.59 0 0 1 -7.78,3.34l-3.69,0l0,-7.28l3.65,0c1.36,0 1.62,-0.1 2.14,-0.73a5.05,5.05 0 0 0 1,-3.6l0.03,-27.52z"/>
  <path fill="#ffffff" id="svg_9" d="m172.91,34.7l6.78,2.72c-1.25,3.13 -3.81,6.1 -6.05,7.15a21.48,21.48 0 0 1 -7.31,1.36c-4,0.1 -8.62,-1.31 -11.44,-4c-3,-2.87 -4.54,-9.82 -4.69,-14.78l0,-0.1c0.05,-4.91 1.72,-12 4.69,-14.83c2.82,-2.61 7.47,-4 11.44,-3.91a20.55,20.55 0 0 1 7.93,1.88c3.34,1.67 4.91,5.63 5.33,6.68l-6.79,2.71c-0.42,-1 -0.94,-2.4 -1.77,-2.82a10.83,10.83 0 0 0 -4.81,-1.14l-0.05,0c-2.87,-0.11 -4.7,0.47 -6.26,1.93c-1.41,1.3 -2.35,5.43 -2.41,9.5c0.16,4.12 1.05,8.25 2.41,9.55c1.56,1.52 3.39,2.09 6.31,2l0.05,0a12.17,12.17 0 0 0 4.34,-0.73c0.78,-0.3 1.46,-1.18 2.3,-3.17z"/>
  <path fill="#ffffff" id="svg_10" d="m191.59,12.51l0,-3.65l7.31,0l0,31.14c0,2.55 -0.89,6.21 -2.66,8.3a10.61,10.61 0 0 1 -7.78,3.34l-3.66,0l0,-7.28l3.66,0c1.36,0 1.62,-0.1 2.14,-0.73a5.05,5.05 0 0 0 1,-3.6l-0.01,-27.52z"/>
 </g>
</svg>