<svg width="576" height="512" xmlns="http://www.w3.org/2000/svg" class="svg-inline--fa fa-shopping-cart fa-w-18">

 <g>
  <title>background</title>
  <rect fill="none" id="canvas_background" height="402" width="582" y="-1" x="-1"/>
 </g>
 <g>
  <title>Layer 1</title>
  <path id="svg_1" d="m528.12,301.319l47.273,-208c3.413,-15.018 -8.002,-29.319 -23.403,-29.319l-392.782,0l-9.166,-44.81c-2.284,-11.169 -12.112,-19.19 -23.513,-19.19l-102.529,0c-13.255,0 -24,10.745 -24,24l0,16c0,13.255 10.745,24 24,24l69.883,0l70.248,343.435c-16.806,9.665 -28.131,27.787 -28.131,48.565c0,30.928 25.072,56 56,56s56,-25.072 56,-56c0,-15.674 -6.447,-29.835 -16.824,-40l209.647,0c-10.376,10.165 -16.823,24.326 -16.823,40c0,30.928 25.072,56 56,56s56,-25.072 56,-56c0,-22.172 -12.888,-41.332 -31.579,-50.405l5.517,-24.276c3.413,-15.018 -8.002,-29.319 -23.403,-29.319l-268.418,0l-6.545,-32l293.145,0c11.206,0 20.92,-7.754 23.403,-18.681z" fill="#ffffff"/>
 </g>
</svg>