<svg width="121" height="35" xmlns="http://www.w3.org/2000/svg">
 <defs>
  <style>.cls-1{fill:#d4dc00;}</style>
 </defs>
 <title>op3</title>
 <g>
  <title>background</title>
  <rect fill="none" id="canvas_background" height="37" width="123" y="-1" x="-1"/>
 </g>
 <g>
  <title>Layer 1</title>
  <g stroke="null" id="svg_11">
   <g stroke="null" id="YSp235.tif">
    <path stroke="null" id="svg_1" d="m16.46848,27.129263l-0.899282,0l-0.417731,-0.040613a8.743343,8.743343 0 0 1 -2.320728,-0.522164a9.34093,9.34093 0 0 1 -5.128809,-4.409383a9.161074,9.161074 0 0 1 -1.061733,-3.591327a9.416354,9.416354 0 0 1 8.06453,-10.164789l0.504758,-0.058018a0.469947,0.469947 0 0 1 0,0.052216a4.4616,4.4616 0 0 1 -1.229986,3.481092c-0.580182,0.580182 -1.160364,1.160364 -1.740546,1.769555a5.900451,5.900451 0 0 0 -0.910886,1.160364a5.500126,5.500126 0 0 0 -0.673011,3.724769a5.186827,5.186827 0 0 0 1.050129,2.436764a5.581351,5.581351 0 0 0 8.424243,0.533767c0.533767,-0.539569 1.067535,-1.073337 1.607104,-1.607104a4.595042,4.595042 0 0 1 3.579723,-1.363428l0.075424,0a0.777444,0.777444 0 0 1 0,0.121838a8.778154,8.778154 0 0 1 -0.539569,2.320728a9.317723,9.317723 0 0 1 -5.064989,5.378287a9.050839,9.050839 0 0 1 -2.721054,0.731029l-0.597587,0.046415z" class="cls-1"/>
    <path stroke="null" id="svg_2" d="m25.438094,17.324187l0,0.19146l-0.098631,0a5.842433,5.842433 0 0 0 -1.311211,0.081225a5.349278,5.349278 0 0 0 -2.784874,1.392437c-0.620795,0.580182 -1.206779,1.200977 -1.81597,1.798564a4.600843,4.600843 0 0 1 -7.80925,-2.442566a4.444194,4.444194 0 0 1 1.200977,-3.962643c0.551173,-0.580182 1.160364,-1.131355 1.694131,-1.740546a7.356708,7.356708 0 0 0 0.771642,-0.928291a5.413098,5.413098 0 0 0 0.905084,-3.330245l0,-0.139244l0.075424,0l0.580182,0.040613a8.998623,8.998623 0 0 1 2.77327,0.678813a9.36994,9.36994 0 0 1 4.542825,4.003256a9.21329,9.21329 0 0 1 1.235788,3.968445c0.011604,0.116036 0.023207,0.249478 0.040613,0.388722z" class="cls-1"/>
   </g>
   <g stroke="null" id="llP2TB.tif">
    <path stroke="null" id="svg_3" d="m37.47687,8.389384c0.580182,5.012773 3.28383,8.168963 8.122548,9.578805a9.445363,9.445363 0 0 1 -10.71016,9.08565c-0.081225,-0.493155 -0.133442,-0.997913 -0.25528,-1.479464c-0.980508,-3.968445 -3.394065,-6.590868 -7.316095,-7.803448l-0.342307,-0.092829c-0.290091,-0.06382 -0.301695,-0.06382 -0.284289,-0.359713a9.039236,9.039236 0 0 1 1.235788,-4.264338a9.538192,9.538192 0 0 1 4.757493,-4.1425a9.282912,9.282912 0 0 1 4.212121,-0.609191c0.208866,0.017405 0.394524,0.06382 0.580182,0.087027z" class="cls-1"/>
    <path stroke="null" id="svg_4" d="m38.39936,8.557637a9.375741,9.375741 0 0 1 7.165248,8.546081a9.335129,9.335129 0 0 1 -4.867727,-2.976334a9.062443,9.062443 0 0 1 -2.297521,-5.569747z" class="cls-1"/>
    <path stroke="null" id="svg_5" d="m26.714494,18.478749a9.509183,9.509183 0 0 1 7.287086,8.435847a9.416354,9.416354 0 0 1 -7.287086,-8.435847z" class="cls-1"/>
   </g>
   <g stroke="null" id="YSp235.tif-2">
    <path stroke="null" id="svg_6" d="m55.793217,27.129263l0.899282,0l0.417731,-0.040613a8.743343,8.743343 0 0 0 2.320728,-0.522164a9.34093,9.34093 0 0 0 5.128809,-4.409383a9.161074,9.161074 0 0 0 1.061733,-3.591327a9.416354,9.416354 0 0 0 -8.06453,-10.164789l-0.504758,-0.058018a0.469947,0.469947 0 0 0 0,0.052216a4.4616,4.4616 0 0 0 1.229986,3.481092c0.580182,0.580182 1.160364,1.160364 1.740546,1.769555a5.900451,5.900451 0 0 1 0.910886,1.160364a5.500126,5.500126 0 0 1 0.673011,3.724769a5.186827,5.186827 0 0 1 -1.050129,2.436764a5.581351,5.581351 0 0 1 -8.424243,0.533767c-0.533767,-0.539569 -1.067535,-1.073337 -1.607104,-1.607104a4.595042,4.595042 0 0 0 -3.579723,-1.363428l-0.075424,0a0.777444,0.777444 0 0 0 0,0.121838a8.778154,8.778154 0 0 0 0.539569,2.320728a9.317723,9.317723 0 0 0 5.064989,5.378287a9.050839,9.050839 0 0 0 2.721054,0.731029l0.597587,0.046415z" class="cls-1"/>
    <path stroke="null" id="svg_7" d="m46.823603,17.324187l0,0.19146l0.098631,0a5.842433,5.842433 0 0 1 1.311211,0.081225a5.349278,5.349278 0 0 1 2.784874,1.392437c0.620795,0.580182 1.206779,1.200977 1.81597,1.798564a4.600843,4.600843 0 0 0 7.80925,-2.442566a4.444194,4.444194 0 0 0 -1.200977,-3.962643c-0.580182,-0.580182 -1.160364,-1.131355 -1.694131,-1.740546a7.356708,7.356708 0 0 1 -0.771642,-0.928291a5.413098,5.413098 0 0 1 -0.905084,-3.330245l0,-0.139244l-0.075424,0l-0.580182,0.040613a8.998623,8.998623 0 0 0 -2.77327,0.678813a9.36994,9.36994 0 0 0 -4.542825,4.003256a9.21329,9.21329 0 0 0 -1.235788,3.968445c-0.011604,0.116036 -0.023207,0.249478 -0.040613,0.388722z" class="cls-1"/>
   </g>
   <path stroke="null" id="svg_8" d="m76.639157,7.368263l0,-2.117664l4.241131,0l0,18.066868c0,1.479464 -0.51056,3.60293 -1.543284,4.815511a6.144128,6.144128 0 0 1 -4.513816,1.937808l-2.140872,0l0,-4.223725l2.117664,0c0.789048,0 0.939895,-0.058018 1.24159,-0.423533a2.929919,2.929919 0 0 0 0.580182,-2.088655l0.017405,-15.966609z"/>
   <path stroke="null" id="svg_9" d="m99.318472,20.242502l3.933634,1.578095c-0.725228,1.81597 -2.210493,3.53911 -3.510101,4.148301a12.46231,12.46231 0 0 1 -4.241131,0.789048c-2.320728,0.058018 -5.001169,-0.760038 -6.637282,-2.320728c-1.740546,-1.665122 -2.634026,-5.697387 -2.721054,-8.57509l0,-0.058018c0.029009,-2.848694 0.997913,-6.962184 2.721054,-8.604099c1.636113,-1.514275 4.33396,-2.320728 6.637282,-2.268512a11.92274,11.92274 0 0 1 4.600843,1.090742c1.937808,0.968904 2.848694,3.266425 3.09237,3.875616l-3.939436,1.572293c-0.243676,-0.580182 -0.545371,-1.392437 -1.026922,-1.636113a6.283371,6.283371 0 0 0 -2.790675,-0.661407l-0.029009,0c-1.665122,-0.06382 -2.726855,0.272686 -3.631939,1.119751c-0.818057,0.754237 -1.363428,3.150388 -1.398239,5.511729c0.092829,2.39035 0.609191,4.786502 1.398239,5.540738c0.905084,0.881877 1.966817,1.21258 3.660949,1.160364l0.029009,0a7.060815,7.060815 0 0 0 2.51799,-0.423533c0.452542,-0.174055 0.847066,-0.684615 1.334419,-1.839177z"/>
   <path stroke="null" id="svg_10" d="m110.156272,7.368263l0,-2.117664l4.241131,0l0,18.066868c0,1.479464 -0.516362,3.60293 -1.543284,4.815511a6.155731,6.155731 0 0 1 -4.513816,1.937808l-2.123466,0l0,-4.223725l2.123466,0c0.789048,0 0.939895,-0.058018 1.24159,-0.423533a2.929919,2.929919 0 0 0 0.580182,-2.088655l-0.005802,-15.966609z"/>
  </g>
 </g>
</svg>