<svg width="121" height="35" xmlns="http://www.w3.org/2000/svg">
 <defs>
  <style>.cls-1{fill:#d4dc00;}</style>
 </defs>
 <title>op3</title>
 <g>
  <title>background</title>
  <rect x="-1" y="-1" width="123" height="37" id="canvas_background" fill="none"/>
 </g>
 <g>
  <title>Layer 1</title>
  <g id="svg_11" stroke="null">
   <g id="YSp235.tif" stroke="null">
    <path class="cls-1" d="m16.46848,27.12926l-0.89928,0l-0.41773,-0.04061a8.74334,8.74334 0 0 1 -2.32073,-0.52216a9.34093,9.34093 0 0 1 -5.12881,-4.40939a9.16107,9.16107 0 0 1 -1.06173,-3.59132a9.41635,9.41635 0 0 1 8.06453,-10.16479l0.50476,-0.05802a0.46995,0.46995 0 0 1 0,0.05221a4.4616,4.4616 0 0 1 -1.22999,3.4811c-0.58018,0.58018 -1.16036,1.16036 -1.74055,1.76955a5.90045,5.90045 0 0 0 -0.91088,1.16037a5.50013,5.50013 0 0 0 -0.67301,3.72476a5.18683,5.18683 0 0 0 1.05013,2.43677a5.58135,5.58135 0 0 0 8.42424,0.53377c0.53377,-0.53957 1.06753,-1.07334 1.6071,-1.60711a4.59504,4.59504 0 0 1 3.57973,-1.36343l0.07542,0a0.77744,0.77744 0 0 1 0,0.12184a8.77815,8.77815 0 0 1 -0.53957,2.32073a9.31772,9.31772 0 0 1 -5.06499,5.37829a9.05084,9.05084 0 0 1 -2.72105,0.73103l-0.59759,0.04641z" id="svg_1" stroke="null"/>
    <path class="cls-1" d="m25.43809,17.32419l0,0.19146l-0.09863,0a5.84243,5.84243 0 0 0 -1.31121,0.08122a5.34928,5.34928 0 0 0 -2.78487,1.39244c-0.6208,0.58018 -1.20678,1.20098 -1.81597,1.79856a4.60084,4.60084 0 0 1 -7.80925,-2.44256a4.44419,4.44419 0 0 1 1.20097,-3.96265c0.55118,-0.58018 1.16037,-1.13135 1.69414,-1.74054a7.35671,7.35671 0 0 0 0.77164,-0.92829a5.4131,5.4131 0 0 0 0.90508,-3.33025l0,-0.13924l0.07543,0l0.58018,0.04061a8.99862,8.99862 0 0 1 2.77327,0.67881a9.36994,9.36994 0 0 1 4.54282,4.00326a9.21329,9.21329 0 0 1 1.23579,3.96845c0.01161,0.11603 0.02321,0.24947 0.04061,0.38872z" id="svg_2" stroke="null"/>
   </g>
   <g id="llP2TB.tif" stroke="null">
    <path class="cls-1" d="m37.47687,8.38938c0.58018,5.01278 3.28383,8.16897 8.12255,9.57881a9.44536,9.44536 0 0 1 -10.71016,9.08565c-0.08123,-0.49316 -0.13344,-0.99791 -0.25528,-1.47946c-0.98051,-3.96845 -3.39407,-6.59087 -7.3161,-7.80345l-0.3423,-0.09283c-0.2901,-0.06382 -0.3017,-0.06382 -0.28429,-0.35971a9.03924,9.03924 0 0 1 1.23578,-4.26434a9.53819,9.53819 0 0 1 4.7575,-4.1425a9.28291,9.28291 0 0 1 4.21212,-0.60919c0.20886,0.0174 0.39452,0.06382 0.58018,0.08702z" id="svg_3" stroke="null"/>
    <path class="cls-1" d="m38.39936,8.55764a9.37574,9.37574 0 0 1 7.16525,8.54608a9.33513,9.33513 0 0 1 -4.86773,-2.97634a9.06244,9.06244 0 0 1 -2.29752,-5.56974z" id="svg_4" stroke="null"/>
    <path class="cls-1" d="m26.71449,18.47875a9.50918,9.50918 0 0 1 7.28709,8.43585a9.41635,9.41635 0 0 1 -7.28709,-8.43585z" id="svg_5" stroke="null"/>
   </g>
   <g id="YSp235.tif-2" stroke="null">
    <path class="cls-1" d="m55.79322,27.12926l0.89928,0l0.41773,-0.04061a8.74334,8.74334 0 0 0 2.32073,-0.52216a9.34093,9.34093 0 0 0 5.12881,-4.40939a9.16107,9.16107 0 0 0 1.06173,-3.59132a9.41635,9.41635 0 0 0 -8.06453,-10.16479l-0.50476,-0.05802a0.46995,0.46995 0 0 0 0,0.05221a4.4616,4.4616 0 0 0 1.22999,3.4811c0.58018,0.58018 1.16036,1.16036 1.74054,1.76955a5.90045,5.90045 0 0 1 0.91089,1.16037a5.50013,5.50013 0 0 1 0.67301,3.72476a5.18683,5.18683 0 0 1 -1.05013,2.43677a5.58135,5.58135 0 0 1 -8.42424,0.53377c-0.53377,-0.53957 -1.06754,-1.07334 -1.6071,-1.60711a4.59504,4.59504 0 0 0 -3.57973,-1.36343l-0.07542,0a0.77744,0.77744 0 0 0 0,0.12184a8.77815,8.77815 0 0 0 0.53957,2.32073a9.31772,9.31772 0 0 0 5.06499,5.37829a9.05084,9.05084 0 0 0 2.72105,0.73103l0.59759,0.04641z" id="svg_6" stroke="null"/>
    <path class="cls-1" d="m46.8236,17.32419l0,0.19146l0.09863,0a5.84243,5.84243 0 0 1 1.31121,0.08122a5.34928,5.34928 0 0 1 2.78488,1.39244c0.62079,0.58018 1.20678,1.20098 1.81597,1.79856a4.60084,4.60084 0 0 0 7.80925,-2.44256a4.44419,4.44419 0 0 0 -1.20098,-3.96265c-0.58018,-0.58018 -1.16036,-1.13135 -1.69413,-1.74054a7.35671,7.35671 0 0 1 -0.77164,-0.92829a5.4131,5.4131 0 0 1 -0.90509,-3.33025l0,-0.13924l-0.07542,0l-0.58018,0.04061a8.99862,8.99862 0 0 0 -2.77327,0.67881a9.36994,9.36994 0 0 0 -4.54283,4.00326a9.21329,9.21329 0 0 0 -1.23578,3.96845c-0.01161,0.11603 -0.02321,0.24947 -0.04062,0.38872z" id="svg_7" stroke="null"/>
   </g>
   <path fill="#ffffff" d="m76.63916,7.36826l0,-2.11766l4.24113,0l0,18.06687c0,1.47946 -0.51056,3.60293 -1.54329,4.81551a6.14413,6.14413 0 0 1 -4.51381,1.93781l-2.14087,0l0,-4.22373l2.11766,0c0.78905,0 0.93989,-0.05802 1.24159,-0.42353a2.92992,2.92992 0 0 0 0.58018,-2.08866l0.01741,-15.96661z" id="svg_8" stroke="null"/>
   <path fill="#ffffff" d="m99.31847,20.2425l3.93364,1.5781c-0.72523,1.81597 -2.2105,3.53911 -3.51011,4.1483a12.46231,12.46231 0 0 1 -4.24113,0.78905c-2.32072,0.05801 -5.00117,-0.76004 -6.63728,-2.32073c-1.74054,-1.66512 -2.63402,-5.69739 -2.72105,-8.57509l0,-0.05802c0.02901,-2.84869 0.99791,-6.96218 2.72105,-8.6041c1.63611,-1.51427 4.33396,-2.32073 6.63728,-2.26851a11.92274,11.92274 0 0 1 4.60085,1.09074c1.9378,0.96891 2.84869,3.26643 3.09237,3.87562l-3.93944,1.57229c-0.24367,-0.58018 -0.54537,-1.39244 -1.02692,-1.63611a6.28337,6.28337 0 0 0 -2.79068,-0.66141l-0.02901,0c-1.66512,-0.06382 -2.72685,0.27269 -3.63193,1.11975c-0.81806,0.75424 -1.36343,3.15039 -1.39824,5.51173c0.09283,2.39035 0.60919,4.7865 1.39824,5.54074c0.90508,0.88188 1.96681,1.21258 3.66094,1.16036l0.02901,0a7.06081,7.06081 0 0 0 2.51799,-0.42353c0.45255,-0.17406 0.84707,-0.68462 1.33442,-1.83918z" id="svg_9" stroke="null"/>
   <path fill="#ffffff" d="m110.15627,7.36826l0,-2.11766l4.24113,0l0,18.06687c0,1.47946 -0.51636,3.60293 -1.54328,4.81551a6.15573,6.15573 0 0 1 -4.51382,1.93781l-2.12346,0l0,-4.22373l2.12346,0c0.78905,0 0.9399,-0.05802 1.24159,-0.42353a2.92992,2.92992 0 0 0 0.58018,-2.08866l-0.0058,-15.96661z" id="svg_10" stroke="null"/>
  </g>
 </g>
</svg>